<?xml version="1.0" encoding="UTF-8"?>
<svg viewBox="-4 0 32 32" width="45px" height="32px" version="1.1" xmlns="http://www.w3.org/2000/svg" xmlns:xlink="http://www.w3.org/1999/xlink">
    
    <path
    d="M 21.5,26.59 18.91,24 l -1.41,1.41 4,4 7,-7 L 27.09,21 Z M 12.5,23 h 2 v 2 h -2 z m -6,0 h 2 v 2 h -2 z m 12,-5 h 2 v 2 h -2 z m -6,0 h 2 v 2 h -2 z m -6,0 h 2 v 2 h -2 z m 12,-5 h 2 v 2 h -2 z m -6,0 h 2 v 2 h -2 z m -6,0 h 2 v 2 h -2 z m 0,-6 h 14 v 3 h -14 z m 8,23 H 3.505 A 2.007,2.007 0 0 1 1.5,27.995 V 3.996 A 1.998,1.998 0 0 1 3.496,2 H 23.504 A 1.998,1.998 0 0 1 25.5,3.996 V 18 h -2 V 4 h -20 v 24 h 11 z" fill="#0062ff"/>

</svg>