<?xml version="1.0" encoding="UTF-8"?>
<svg viewBox="-4 0 32 32" width="45px" height="32px" version="1.1" xmlns="http://www.w3.org/2000/svg" xmlns:xlink="http://www.w3.org/1999/xlink">
    
    <path
    d="m 16.5,19 h -4 v -4 h -2 v 4 h -4 v 2 h 4 v 4 h 2 v -4 h 4 z m 4.7,-9.7 -7,-7 A 0.91,0.91 0 0 0 13.5,2 h -10 a 2,2 0 0 0 -2,2 v 24 a 2,2 0 0 0 2,2 h 16 a 2,2 0 0 0 2,-2 V 10 A 0.91,0.91 0 0 0 21.2,9.3 Z M 13.5,4.4 19.1,10 h -5.6 z m 6,23.6 H 3.5 V 4 h 8 v 6 a 2,2 0 0 0 2,2 h 6 z" fill="#0062ff"/>

</svg>