<?xml version="1.0" encoding="UTF-8"?>
<svg viewBox="-4 0 32 32" width="45px" height="32px" version="1.1" xmlns="http://www.w3.org/2000/svg" xmlns:xlink="http://www.w3.org/1999/xlink">
    
    <path
       d="m 21.5,5 h -3 V 4 a 2,2 0 0 0 -2,-2 h -8 a 2,2 0 0 0 -2,2 v 1 h -3 a 2,2 0 0 0 -2,2 v 21 a 2,2 0 0 0 2,2 h 18 a 2,2 0 0 0 2,-2 V 7 a 2,2 0 0 0 -2,-2 z M 8.5,4 h 8 v 4 h -8 z m 13,24 H 3.5 V 7 h 3 v 3 h 12 V 7 h 3 z M 10.5,20.18 6.91,16.59 5.5,18 l 5,5 9,-9 -1.41,-1.42 z"
       fill="#0062ff" />

</svg>