<?xml version="1.0" encoding="UTF-8"?>
<svg viewBox="-4 0 32 32" width="45px" height="32px" version="1.1" xmlns="http://www.w3.org/2000/svg" xmlns:xlink="http://www.w3.org/1999/xlink">
    
    <path
    d="m 21.5,2 h -18 a 2.002,2.002 0 0 0 -2,2 v 25 a 1,1 0 0 0 1,1 h 1 A 0.999,0.999 0 0 0 4.3,29.6 L 6.5,26.667 8.7,29.6 a 1.035,1.035 0 0 0 1.6,0 l 2.2,-2.933 2.2,2.933 a 1.035,1.035 0 0 0 1.6,0 l 2.2,-2.933 2.2,2.933 a 1,1 0 0 0 0.8,0.4 h 1 a 1,1 0 0 0 1,-1 V 4 a 2.002,2.002 0 0 0 -2,-2 z m 0,25.333 -2.2,-2.933 a 1.035,1.035 0 0 0 -1.6,0 L 15.5,27.333 13.3,24.4 a 1.035,1.035 0 0 0 -1.6,0 L 9.5,27.333 7.3,24.4 a 1.035,1.035 0 0 0 -1.6,0 L 3.5,27.333 V 4 h 18 z M 17.5,16 h 2 v 2 h -2 z m -12,0 h 8 v 2 h -8 z m 12,-4 h 2 v 2 h -2 z m -12,0 h 8 v 2 h -8 z m 0,-4 h 14 v 2 h -14 z" fill="#0062ff"/>

</svg>