<?xml version="1.0" encoding="UTF-8"?>
<svg viewBox="-4 0 32 32" width="45px" height="32px" version="1.1" xmlns="http://www.w3.org/2000/svg" xmlns:xlink="http://www.w3.org/1999/xlink">

<path d="M 26.5,22.141 V 18 a 2,2 0 0 0 -2,-2 h -8 v -4 h 2 a 2.002,2.002 0 0 0 2,-2 V 4 a 2.002,2.002 0 0 0 -2,-2 h -6 a 2.002,2.002 0 0 0 -2,2 v 6 a 2.002,2.002 0 0 0 2,2 h 2 v 4 h -8 a 2,2 0 0 0 -2,2 v 4.142 a 4,4 0 1 0 2,0 V 18 h 8 v 4.142 a 4,4 0 1 0 2,0 V 18 h 8 v 4.141 a 4,4 0 1 0 2,0 z M 12.5,4 h 6 l 0.001,6 H 12.5 Z m -5,22 a 2,2 0 1 1 -2,-2 2.002,2.002 0 0 1 2,2 z m 10,0 a 2,2 0 1 1 -2,-2 2.003,2.003 0 0 1 2,2 z m 8,2 a 2,2 0 1 1 2,-2 2.002,2.002 0 0 1 -2,2 z" fill="#0062ff"></path>

</svg>