<?xml version="1.0" encoding="UTF-8"?>
<svg viewBox="-4 0 32 32" width="45px" height="32px" version="1.1" xmlns="http://www.w3.org/2000/svg" xmlns:xlink="http://www.w3.org/1999/xlink">

    
  <path 
     d="m 24,4 c -0.115073,0 -0.22999,0.02083 -0.339844,0.060547 l -11,4 C 12.264209,8.2036971 12.000179,8.5789699 12,9 v 3 c 0,0.552285 0.447715,1 1,1 h 1 v 13 h -2 v 2 H 32 V 26 H 28 V 13 h 4 v 3 h 2 v -3 h 1 c 0.552285,0 1,-0.447715 1,-1 V 9 C 35.999821,8.5789699 35.735791,8.2036971 35.339844,8.0605469 l -11,-4 C 24.22999,4.0208304 24.115073,4 24,4 Z m 0,2.0605469 10,3.6386719 V 11 H 14 V 9.6992188 Z M 16,13 h 4 v 13 h -4 z m 6,0 h 4 v 13 h -4 z"
     transform="translate(-10.5)" fill="#0062ff" />
  <path
     d="m 26.5,17 h -2 v 4 h -4 v 2 h 4 v 4 h 2 v -4 h 4 v -2 h -4 z" fill="#0062ff"/>
    
</svg>