<?xml version="1.0" encoding="UTF-8"?>
<svg viewBox="-4 0 32 32" width="45px" height="32px" version="1.1" xmlns="http://www.w3.org/2000/svg" xmlns:xlink="http://www.w3.org/1999/xlink">
    
    <path d="m 28.5,2 h -2 v 4 h -4 v 2 h 4 v 4 h 2 V 8 h 4 V 6 h -4 z M 11.568908,1.992437 a 9.8,9.8 0 0 0 -5.4000004,1.6 l 6.4000004,6.4 a 2.1,2.1 0 0 1 0.2,3 2.1,2.1 0 0 1 -3.0000004,-0.2 l -6.6,-6.4 a 9.84,9.84 0 0 0 -1.7,5.7 10.14,10.14 0 0 0 10.1000004,10.1 10.9,10.9 0 0 0 2.6,-0.3 l 6.7,6.7 a 5.0204581,5.0204581 0 0 0 7.1,-7.1 l -6.7,-6.7 a 10.9,10.9 0 0 0 0.3,-2.6 10,10 0 0 0 -10,-10.2 z m 8,10.1 a 7.61,7.61 0 0 1 -0.3,2.1 l -0.3,1.1 0.8,0.8 6.7,6.7 a 2.88,2.88 0 0 1 0.9,2.1 2.72,2.72 0 0 1 -0.9,2.1 2.9,2.9 0 0 1 -4.2,0 l -6.7,-6.7 -0.8,-0.8 -1.1,0.3 a 7.61,7.61 0 0 1 -2.1,0.3 8.27,8.27 0 0 1 -5.7000004,-2.3 7.63,7.63 0 0 1 -2.4,-5.7 8.33,8.33 0 0 1 0.3,-2.2 l 4.4,4.4 a 4.14,4.14 0 0 0 5.9000004,0.2 4.14,4.14 0 0 0 -0.2,-5.9 l -4.4000004,-4.4 a 6.45,6.45 0 0 1 2.0000004,-0.3 8.27,8.27 0 0 1 5.7,2.3 8.49,8.49 0 0 1 2.4,5.9 z" fill="#0062ff"></path>
    
</svg>