<svg xmlns="http://www.w3.org/2000/svg" xmlns:xlink="http://www.w3.org/1999/xlink" viewBox="-4 0 32 32" width="45px" height="32px" version="1.1">

    <path 
     d="m 26.5,2 h -2 v 4 h -4 v 2 h 4 v 4 h 2 V 8 h 4 V 6 h -4 z"
     fill="#0062ff"/>
    <path d="M 15.5,3.0058594 C 11.433508,3.0035194 7.367011,2.9980194 3.300781,3.0097694 2.06055,3.0926584 1.331892,4.3673389 1.5,5.515625 V 5 h 2 12 z M 29.490234,27.484375 V 28 h -2 -24 H 1.5 c 2.27e-4,0.0664 -2.36e-4,0.132818 0,0.199219 C 1.5829,29.43945 2.857573,30.168108 4.005859,30 c 7.894375,-0.0067 15.789636,0.01355 23.683594,-0.0098 1.240231,-0.08287 1.968889,-1.357538 1.800781,-2.505825 z M 1.5,5 v 23 h 2 V 5 Z m 26,13 v 10 h 2 c -0.0017,-2.333307 6e-4,-7.666648 0,-10 z" fill="#0062ff"/>
    <path
     d="m 6.5,8 h 6 v 2 h -6 z m 3,5 h 6 v 2 h -6 z m 4,5 h 8 v 2 h -8 z m 4,5 h 7 v 2 h -7 z" fill="#0062ff"/>
</svg>