<?xml version="1.0" encoding="UTF-8"?>
<svg viewBox="-4 0 32 32" width="45px" height="32px" version="1.1" xmlns="http://www.w3.org/2000/svg" xmlns:xlink="http://www.w3.org/1999/xlink">
    
    <path d="M 26 2 C 24.895887 2.0011 24.001102 2.8958875 24 4 L 24 14 L 14 14 C 12.895888 14.0011 12.001103 14.895887 12 16 L 12 30 L 40 30 L 40 25 L 38 25 L 38 28 L 25 28 L 25 20 C 25 19.447715 24.552285 19 24 19 L 18 19 C 17.447715 19 17 19.447715 17 20 L 17 28 L 14 28 L 14 16 L 26 16 L 26 4 L 38 4 L 38 8 L 40 8 L 40 4 C 39.9989 2.8958875 39.104113 2.0011025 38 2 L 26 2 z M 19 21 L 23 21 L 23 28 L 19 28 L 19 21 z "
     transform="translate(-10.5)" fill="#0062ff"/>
    
    <path d="m 32.5,22 -3.11,-3.11 a 6,6 0 1 0 -1.42,1.42 l 3.11,3.11 z m -8,-2.58 a 4,4 0 1 1 4,-4 4,4 0 0 1 -4,4 z" fill="#0062ff"></path>

</svg>