<?xml version="1.0" encoding="UTF-8"?>
<svg viewBox="-4 0 32 32" width="45px" height="32px" version="1.1" xmlns="http://www.w3.org/2000/svg" xmlns:xlink="http://www.w3.org/1999/xlink">
    
    <circle cx="15.5" cy="22.5" r="1.5" fill="#0062ff"></circle>
    <path d="m 16.5,19 h -2 v -4 h 2 a 2,2 0 0 0 0,-4 h -2 a 2.002,2.002 0 0 0 -2,2 v 0.5 h -2 V 13 a 4.005,4.005 0 0 1 4,-4 h 2 a 4,4 0 0 1 0,8 z" fill="#0062ff"></path>
    
    <path d="M 15.5,30 A 2.076,2.076 0 0 1 14.027,29.39 L 2.109,17.474 a 2.086,2.086 0 0 1 0,-2.946 L 14.027,2.609 a 2.086,2.086 0 0 1 2.946,0 l 11.918,11.918 a 2.086,2.086 0 0 1 0,2.946 L 16.973,29.391 A 2.076,2.076 0 0 1 15.5,30 Z m 0,-26 A 0.084,0.084 0 0 0 15.44,4.024 L 3.525,15.94 a 0.084,0.084 0 0 0 0,0.118 L 15.44,27.976 a 0.084,0.084 0 0 0 0.118,0 L 27.476,16.06 a 0.084,0.084 0 0 0 0,-0.118 L 15.56,4.024 A 0.084,0.084 0 0 0 15.5,3.999 Z" fill="#0062ff"></path>

</svg>