<?xml version="1.0" encoding="UTF-8"?>
<svg viewBox="-4 0 32 32" width="45px" height="32px" version="1.1" xmlns="http://www.w3.org/2000/svg" xmlns:xlink="http://www.w3.org/1999/xlink">
    
    <path  d="M 15.5,20 A 1.5,1.5 0 1 0 17,21.5 1.5,1.5 0 0 0 15.5,20 Z m -1,-11 h 2 v 9 h -2 z" fill=" #0062ff"></path>
    
    <path d="m 25.5,28 h -20 a 2.002,2.002 0 0 1 -2,-2 V 6 a 2.002,2.002 0 0 1 2,-2 h 20 a 2.002,2.002 0 0 1 2,2 v 20 a 2.002,2.002 0 0 1 -2,2 z M 5.5,6 V 26 H 25.501 L 25.5,6 Z" fill="#0062ff"></path>

</svg>