<?xml version="1.0" encoding="UTF-8"?>
<svg viewBox="-4 0 32 32" width="45px" height="32px" version="1.1" xmlns="http://www.w3.org/2000/svg" xmlns:xlink="http://www.w3.org/1999/xlink">
    
    <path d="m 15.5,20 h 14 v 2 h -14 z m 0,4 h 14 v 2 h -14 z m 0,4 h 7 v 2 h -7 z" fill="#0062ff"></path>
    
    <path d="M 13.5,26 H 3.5 V 6 h 7.17 L 14.09,9.41 14.67,10 H 27.5 v 8 h 2 v -8 a 2,2 0 0 0 -2,-2 h -12 L 12.09,4.59 A 2,2 0 0 0 10.67,4 H 3.5 a 2,2 0 0 0 -2,2 v 20 a 2,2 0 0 0 2,2 h 10 z" fill="#0062ff"></path>

</svg>
