<?xml version="1.0" encoding="UTF-8"?>
<svg viewBox="-4 0 32 32" width="45px" height="32px" version="1.1" xmlns="http://www.w3.org/2000/svg" xmlns:xlink="http://www.w3.org/1999/xlink">
    
    <path transform="translate(-10.5)"
     d="m 23,12 v 2 h 2 v 7 h -2 v 2 h 6 V 21 H 27 V 12 Z M 26,7 C 24.66355,7 23.994495,8.6157078 24.939394,9.5606063 25.884292,10.505505 27.5,9.8364502 27.5,8.5 27.5,7.6715729 26.828427,7 26,7 Z" fill="#0062ff"></path>
    
    <path d="m 15.5,29.999996 a 2.076,2.076 0 0 1 -1.473,-0.61 l -11.918,-11.916 a 2.086,2.086 0 0 1 0,-2.946 l 11.918,-11.919 a 2.086,2.086 0 0 1 2.946,0 l 11.918,11.918 a 2.086,2.086 0 0 1 0,2.946 l -11.918,11.918 a 2.076,2.076 0 0 1 -1.473,0.609 z m 0,-26 a 0.084,0.084 0 0 0 -0.06,0.024 l -11.915,11.916 a 0.084,0.084 0 0 0 0,0.118 l 11.915,11.918 a 0.084,0.084 0 0 0 0.118,0 l 11.918,-11.916 a 0.084,0.084 0 0 0 0,-0.118 L 15.56,4.023996 a 0.084,0.084 0 0 0 -0.06,-0.025 z" fill="#0062ff"></path>

</svg>