<?xml version="1.0" encoding="UTF-8"?>
<svg viewBox="-4 0 32 32" width="45px" height="32px" version="1.1" xmlns="http://www.w3.org/2000/svg" xmlns:xlink="http://www.w3.org/1999/xlink">

    <path d="M 10.220182,1.2030313 V 2.8793374 Q 9.5201858,2.501708 8.8938736,2.3174984 8.2675614,2.1240785 7.7057226,2.1240785 q -1.3631502,0 -1.8973575,0.7184171 Q 5.2741575,3.5517019 5.2741575,5.5043222 V 7.4845739 H 8.8754526 V 8.8016716 H 5.2741575 v 4.2828694 h 5.1302335 v 1.565781 H 1.2583912 V 13.084541 H 3.4320629 V 8.8016716 H 1.5991788 V 7.4845739 H 3.4320629 V 5.2924814 q 0,-2.4039336 0.9855206,-3.5184007 0.9855207,-1.1236778 3.1223506,-1.1236778 0.5618387,0 1.2526242,0.14736697 0.6999961,0.1381571 1.4276237,0.40526143 z" fill="#0062ff" transform="translate(0.2258425,0.5154261)"/>
    
    <path d="M 28.567709,27.630208 H 26.416667 V 30 h -1.046875 v -2.369792 h -2.166667 v -0.640625 h 2.166667 v -0.265625 l -0.4375,-0.807291 h -1.729167 v -0.640625 h 1.375 l -1.651042,-3.052084 h 0.989584 l 1.973958,3.645834 1.963542,-3.645834 h 0.994792 l -1.656251,3.052084 h 1.375001 v 0.640625 H 26.84375 l -0.4375,0.807291 v 0.265625 h 2.161459 z" fill="#0062ff" transform="matrix(1.800443,0,0,1.800443,-23.64984,-23.01297)"/>
    
    <path d="m 27.578125,5.8229165 v 1.109375 q -0.473958,-0.546875 -0.916667,-0.78125 -0.4375,-0.234375 -0.96875,-0.234375 -0.817708,0 -1.34375,0.5208333 -0.526041,0.5208334 -0.692708,1.4947917 h 3.005208 L 26.375,8.5729165 h -2.802083 q -0.01042,0.125 -0.01563,0.2447917 0,0.1197917 0,0.3020834 0,0.1666666 0,0.2864583 0.0052,0.1197917 0.01563,0.2447917 h 2.322916 L 25.604167,10.291667 H 23.65625 q 0.166667,0.973958 0.692708,1.5 0.526042,0.526041 1.34375,0.526041 0.53125,0 0.96875,-0.234375 0.442709,-0.234375 0.916667,-0.78125 v 1.098959 q -0.463541,0.375 -0.947917,0.5625 -0.479166,0.1875 -0.979166,0.1875 -1.234375,0 -2.041667,-0.755209 -0.802083,-0.755208 -1.010417,-2.104166 H 21.5 l 0.286458,-0.6406254 h 0.723959 q 0,-0.1197917 -0.0052,-0.2395834 0,-0.125 0,-0.2916666 0,-0.1822917 0,-0.3020834 0.0052,-0.125 0.0052,-0.2447917 H 21.5 l 0.286458,-0.640625 h 0.8125 q 0.208334,-1.3385417 1.015625,-2.09375 0.807292,-0.7552084 2.036459,-0.7552084 0.510416,0 0.989583,0.1875 0.484375,0.1822917 0.9375,0.5520834 z" fill="#0062ff" transform="matrix(1.7352391,0,0,1.7352391,-20.807641,-6.8760599)"/>
    
    <path d="m 4.5,17 h 2 v 14 h -2 z M 5.8985977,31.004637 H 5.0557952 l -0.00843,-2.269221 Q 4.1624247,28.720338 3.2774822,28.554482 2.3925395,28.381086 1.499169,28.041833 v -1.357009 q 0.8596585,0.482493 1.736173,0.731278 0.8849425,0.241245 1.8204532,0.248785 V 24.22713 Q 3.1932018,23.955729 2.3419714,23.307379 1.499169,22.65903 1.499169,21.528189 q 0,-1.228847 0.9186546,-1.937509 0.9186547,-0.708659 2.6379716,-0.814205 v -1.771651 h 0.8428025 v 1.749034 q 0.7838062,0.03015 1.5170443,0.150779 0.7332381,0.113092 1.4327641,0.316636 v 1.319314 Q 8.1488801,20.223951 7.407214,20.050557 6.673976,19.877161 5.8985977,19.847005 v 3.219128 q 1.9131615,0.263863 2.8149601,0.942368 0.9017985,0.678504 0.9017985,1.854579 0,1.274081 -0.9607948,2.012897 -0.9523667,0.731277 -2.7559638,0.844361 z M 5.0557952,22.930432 v -3.090967 q -0.9776508,0.09801 -1.4917602,0.497571 -0.5141095,0.399564 -0.5141095,1.062992 0,0.648348 0.4719693,1.010217 0.4803973,0.361869 1.5339004,0.520187 z m 0.8428025,1.447476 v 3.264362 q 1.070359,-0.128159 1.6097526,-0.542803 0.5478215,-0.414643 0.5478215,-1.093148 0,-0.663426 -0.5225374,-1.05545 -0.5141096,-0.392026 -1.6350367,-0.572961 z" fill="#0062ff" />

</svg>