<?xml version="1.0" encoding="UTF-8"?>
<svg viewBox="-4 0 32 32" width="45px" height="32px" version="1.1" xmlns="http://www.w3.org/2000/svg" xmlns:xlink="http://www.w3.org/1999/xlink">

<path
     d="M 18.5,27.18 15.91,24.59 14.5,26 l 4,4 7,-7 -1.41,-1.41 z"
     fill="#0062ff" />
  <circle
     cx="6.5"
     cy="8"
     r="1"
     fill="#0062ff" />
  <circle
     cx="6.5"
     cy="16"
     r="1"
     fill="#0062ff" />
  <circle
     cx="6.5"
     cy="24"
     r="1"
     fill="#0062ff" />
  <path
     d="m 19.5,3 h -16 a 2,2 0 0 0 -2,2 v 22 a 2,2 0 0 0 2,2 h 8 v -2 h -8 v -6 h 18 V 5 a 2,2 0 0 0 -2,-2 z m 0,16 h -16 v -6 h 16 z m 0,-8 H 3.5 V 5 h 16 z"
     fill="#0062ff"/>

</svg>