<?xml version="1.0" encoding="UTF-8"?>
<svg viewBox="-4 0 32 32" width="45px" height="32px" version="1.1" xmlns="http://www.w3.org/2000/svg" xmlns:xlink="http://www.w3.org/1999/xlink">
    
    <path d="m 27,10 c -8.284271,0 -15,6.715729 -15,15 h 2.015625 c 0.193749,-6.409708 4.748318,-12.848284 11.957031,-12.960938 0.375962,-0.03087 0.75117,-0.04367 1.125,-0.03906 5.607452,0.06918 10.859712,4.050238 12.296875,9.509766 C 39.793246,22.69025 39.972999,23.858633 39.986328,25 H 42 C 42,16.715729 35.284271,10 27,10 Z"
     transform="translate(-10.5)" fill="#0062ff"></path>
    
    <path d="M 18.232051,24 A 2,2 0 0 1 15.5,24.732051 2,2 0 0 1 14.767949,22 2,2 0 0 1 17.5,21.267949 2,2 0 0 1 18.232051,24 Z m 6.401924,-17.0884573 1.73205,1 -9,15.5884573 -1.73205,-1 z" fill="#0062ff"></path>


</svg>