<?xml version="1.0" encoding="UTF-8"?>
<svg viewBox="-4 0 32 32" width="45px" height="32px" version="1.1" xmlns="http://www.w3.org/2000/svg" xmlns:xlink="http://www.w3.org/1999/xlink">

<path d="m 3.784,20.955 v 2 H 7.37 l -5.586,5.586 1.414,1.414 5.586,-5.586 v 3.586 h 2 v -7 z" fill="#0062ff"></path>

<path d="m 23.284,3.955 h -15 l -6,8 L 1.5,13 6.661,18.955 7.985,17.429 4.974,13.955 h 5.112 L 15.784,29.482 30.068,13 Z m 3.5,8 h -5.446 l -3.75,-6 h 4.696 z m -7.804,0 h -6.392 l 3.196,-5.113 z m -14.196,0 4.5,-6 h 4.696 l -3.75,6 z m 10.999,11.721 -3.567,-9.721 h 7.136 z m 1.944,0.51 3.755,-10.231 h 5.112 z" fill="#0062ff"></path>

</svg>