<?xml version="1.0" encoding="UTF-8"?>
<svg viewBox="-4 0 32 32" width="45px" height="32px" version="1.1" xmlns="http://www.w3.org/2000/svg" xmlns:xlink="http://www.w3.org/1999/xlink">
    
    <path
       d="m 29.92,16.61 -3,-7 A 1,1 0 0 0 26,9 H 23 V 7 A 1,1 0 0 0 22,6 H 3 A 1,1 0 0 0 2,7 v 17 a 1,1 0 0 0 1,1 h 2.14 a 4,4 0 0 0 7.72,0 h 5.28 a 4,4 0 0 0 7.72,0 H 29 a 1,1 0 0 0 1,-1 V 17 A 1,1 0 0 0 29.92,16.61 Z M 25.34,11 27.48,16 H 23 V 11 Z M 9,26 a 2,2 0 1 1 2,-2 2,2 0 0 1 -2,2 z m 9.14,-3 H 12.86 A 4,4 0 0 0 5.14,23 H 4 V 8 H 21 V 20.14 A 4,4 0 0 0 18.14,23 Z M 22,26 a 2,2 0 1 1 2,-2 2,2 0 0 1 -2,2 z m 6,-3 H 25.86 A 4,4 0 0 0 23,20.14 V 18 h 5 z"
       fill="#0062ff" />

</svg>