<?xml version="1.0" encoding="UTF-8"?>
<svg viewBox="-4 0 32 32" width="45px" height="32px" version="1.1" xmlns="http://www.w3.org/2000/svg" xmlns:xlink="http://www.w3.org/1999/xlink">
    
    <path
    d="M 20.09,25 17.5,22.41 V 18 h 2 v 3.59 l 2,2 z m -1.59,5 a 8,8 0 1 1 8,-8 8,8 0 0 1 -8,8 z m 0,-14 a 6,6 0 1 0 6,6 6,6 0 0 0 -6,-6 z m 7,-10 a 2,2 0 0 0 -2,-2 h -4 V 2 h -2 v 2 h -8 V 2 h -2 v 2 h -4 a 2,2 0 0 0 -2,2 v 20 a 2,2 0 0 0 2,2 h 4 v -2 h -4 V 6 h 4 v 2 h 2 V 6 h 8 v 2 h 2 V 6 h 4 v 6 h 2 z" fill="#0062ff"/>

</svg>