<?xml version="1.0" encoding="UTF-8"?>
<svg viewBox="-4 0 32 32" width="45px" height="32px" version="1.1" xmlns="http://www.w3.org/2000/svg" xmlns:xlink="http://www.w3.org/1999/xlink">

<path d="m 27.5,12 a 2,2 0 0 0 2,-2 V 4 a 2,2 0 0 0 -2,-2 h -24 a 2,2 0 0 0 -2,2 v 6 a 2,2 0 0 0 2,2 h 11 v 4 h -6 a 2,2 0 0 0 -2,2 v 4 h -3 a 2,2 0 0 0 -2,2 v 4 a 2,2 0 0 0 2,2 h 8 a 2,2 0 0 0 2,-2 v -4 a 2,2 0 0 0 -2,-2 h -3 v -4 h 14 v 4 h -3 a 2,2 0 0 0 -2,2 v 4 a 2,2 0 0 0 2,2 h 8 a 2,2 0 0 0 2,-2 v -4 a 2,2 0 0 0 -2,-2 h -3 v -4 a 2,2 0 0 0 -2,-2 h -6 v -4 z m -16,16 h -8 v -4 h 8 z m 16,0 h -8 v -4 h 8 z M 3.5,4 h 24 v 6 h -24 z" fill="#0062ff"></path>

</svg>