<?xml version="1.0" encoding="UTF-8"?>
<svg viewBox="-4 0 32 32" width="45px" height="32px" version="1.1" xmlns="http://www.w3.org/2000/svg" xmlns:xlink="http://www.w3.org/1999/xlink">
    
    <defs>
        <linearGradient id="alphaGradV" x1="0%" y1="100%" x2="0%" y2="0%">
            <stop offset="0" stop-color="white"/>
            <stop offset="1" stop-color="black"/>
        </linearGradient>
        <linearGradient id="alphaGradH" x1="0%" y1="0%" x2="100%" y2="0%">
            <stop offset="0" stop-color="black"/>
            <stop offset="1" stop-color="white"/>
        </linearGradient>        
        
        <mask id="alphaMask" x="0" y="0" width="100%" height="100%">
            <rect x="0" y="0" width="100%" height="100%" fill="white"/>
            <rect x="8" y="22" height="8" width="8" fill="url(#alphaGradH)"/>
            <rect x="22" y="10" height="8" width="8" fill="url(#alphaGradV)"/>
        </mask>
        <linearGradient id="linear" x1="50%" y1="0%" x2="0%" y2="50%">
            <stop offset="0%" stop-color="#1367fb"/>
            <stop offset="100%" stop-color="#a342f7"/>
        </linearGradient>
    </defs>
    <g transform="translate(-0.5)">
    <path d="M22 10v6h-6v6h-6v8h20V10zm-4 8h4v4h-4zm-2 10h-4v-4h4zm6 0h-4v-4h4zm6 0h-4v-4h4zm0-6h-4v-4h4zm-4-6v-4h4v4z" fill="#0062ff"></path>
    
    <path d="M8 4v4H4V4h4M2 2v8h8V2zm16 5v4h-4V7h4m-6-2v8h8V5zM8 16v4H4v-4h4m-6-2v8h8v-8z" fill="#0062ff"></path>
    </g>
</svg>