<?xml version="1.0" encoding="UTF-8"?>
<svg viewBox="-4 0 32 32" width="45px" height="32px" version="1.1" xmlns="http://www.w3.org/2000/svg" xmlns:xlink="http://www.w3.org/1999/xlink">

    <path d="M 27.5,6 V 26 H 3.5 V 6 h 24 m 0,-2 h -24 a 2,2 0 0 0 -2,2 v 20 a 2,2 0 0 0 2,2 h 24 a 2,2 0 0 0 2,-2 V 6 a 2,2 0 0 0 -2,-2 z" fill="#0062ff"></path>
    
    <path d="m 5.5,10 h 7 v 2 h -7 z m 0,4 h 4 v 2 h -4 z m 17,4 h -6 a 3,3 0 0 0 -3,3 v 2 h 2 v -2 a 1,1 0 0 1 1,-1 h 6 a 1,1 0 0 1 1,1 v 2 h 2 v -2 a 3,3 0 0 0 -3,-3 z m -3,-1 a 4,4 0 1 0 -4,-4 4,4 0 0 0 4,4 z m 0,-6 a 2,2 0 1 1 -2,2 2,2 0 0 1 2,-2 z" fill="#0062ff"></path>

</svg>