<?xml version="1.0" encoding="UTF-8"?>
<svg viewBox="-4 0 32 32" width="45px" height="32px" version="1.1" xmlns="http://www.w3.org/2000/svg" xmlns:xlink="http://www.w3.org/1999/xlink">

    <path d="m 31.5,30 h -2 v -3 a 3,3 0 0 0 -3,-3 h -4 a 3,3 0 0 0 -3,3 v 3 h -2 v -3 a 5,5 0 0 1 5,-5 h 4 a 5,5 0 0 1 5,5 z m -7,-18 a 3,3 0 1 1 -3,3 3,3 0 0 1 3,-3 m 0,-2 a 5,5 0 1 0 5,5 5,5 0 0 0 -5,-5 z m -9,12 h -2 v -3 a 3,3 0 0 0 -3,-3 h -4 a 3,3 0 0 0 -3,3 v 3 h -2 v -3 a 5,5 0 0 1 5,-5 h 4 a 5,5 0 0 1 5,5 z M 8.5,4 a 3,3 0 1 1 -3,3 3,3 0 0 1 3,-3 m 0,-2 a 5,5 0 1 0 5,5 5,5 0 0 0 -5,-5 z" fill="#0062ff"></path>

</svg>