<?xml version="1.0" encoding="UTF-8"?>
<svg viewBox="-4 0 32 32" width="45px" height="32px" version="1.1" xmlns="http://www.w3.org/2000/svg" xmlns:xlink="http://www.w3.org/1999/xlink">

<path d="m 15.5,2 a 14,14 0 1 0 14,14 14.016,14.016 0 0 0 -14,-14 z m 5,3.106 a 12.014,12.014 0 0 1 2.916,1.899 L 23.003,8 H 20.5 Z M 12.878,27.703 A 11.976,11.976 0 0 1 7.616,6.976 L 8.965,9 h 3.342 l -1.5,4 H 6.78 L 5.398,17.148 7.965,21 h 5 l 1.432,2.147 z M 15.5,28 c -0.203,0 -0.402,-0.02 -0.603,-0.03 l 1.397,-4.19 A 1.988,1.988 0 0 0 16.061,22.039 L 14.629,19.891 A 1.996,1.996 0 0 0 12.965,19 H 9.035 L 7.603,16.852 8.221,15 H 10.5 v 2 h 2 V 14.181 L 15.436,6.351 13.564,5.649 13.057,7 H 10.035 L 9.228,5.79 A 11.794,11.794 0 0 1 18.5,4.394 V 8 a 2.002,2.002 0 0 0 2,2 h 2.586 A 1.986,1.986 0 0 0 24.5,9.414 l 0.14,-0.14 0.282,-0.68 A 11.981,11.981 0 0 1 26.8,12 h -4.701 a 1.993,1.993 0 0 0 -1.972,1.665 l -0.597,3.441 a 1.99,1.99 0 0 0 0.991,2.086 l 2.165,1.464 1.458,3.646 A 11.958,11.958 0 0 1 15.5,28 Z M 24.315,19.344 21.6,17.509 21.5,17.449 22.099,14 h 5.22 a 11.743,11.743 0 0 1 -1.744,8.495 z" fill="#0062ff"></path>

</svg>