<?xml version="1.0" encoding="UTF-8"?>
<svg viewBox="-4 0 32 32" width="45px" height="32px" version="1.1" xmlns="http://www.w3.org/2000/svg" xmlns:xlink="http://www.w3.org/1999/xlink">

    <path d="m 25.5,18 a 3.995,3.995 0 0 0 -3.858,3 H 17.5 a 3.003,3.003 0 0 1 -3,-3 v -4 a 4.951,4.951 0 0 0 -1.026,-3 h 8.168 a 4,4 0 1 0 0,-2 H 9.358 a 4,4 0 1 0 0,2 H 9.5 a 3.003,3.003 0 0 1 3,3 v 4 a 5.006,5.006 0 0 0 5,5 h 4.142 A 3.994,3.994 0 1 0 25.5,18 Z m 0,-10 a 2,2 0 1 1 -2,2 2.002,2.002 0 0 1 2,-2 z m -20,4 a 2,2 0 1 1 2,-2 2.002,2.002 0 0 1 -2,2 z m 20,12 a 2,2 0 1 1 2,-2 2.003,2.003 0 0 1 -2,2 z" fill="#0062ff"></path>

</svg>