<?xml version="1.0" encoding="UTF-8"?>
<svg viewBox="-4 0 32 32" width="45px" height="32px" version="1.1" xmlns="http://www.w3.org/2000/svg" xmlns:xlink="http://www.w3.org/1999/xlink">

<circle
     cx="9.5000038"
     cy="11.999996"
     r="2"
     fill="#0062ff" />
  <circle
     cx="15.500004"
     cy="8.9999962"
     r="2"
     fill="#0062ff" />
  <circle
     cx="21.500004"
     cy="11.999996"
     r="2"
     fill="#0062ff" />
  <circle
     cx="22.500004"
     cy="17.999996"
     r="2"
     fill="#0062ff" />
  <circle
     cx="18.500004"
     cy="22.999996"
     r="2"
     fill="#0062ff" />
  <path
     d="M 16.040003,1.9999958 A 14,14 0 0 0 1.5000039,15.999996 a 4.82,4.82 0 0 0 6.09,4.65 l 1.12,-0.31 a 3,3 0 0 1 3.7899991,2.9 v 3.76 a 3,3 0 0 0 3,3 14,14 0 0 0 14,-14.54 14.05,14.05 0 0 0 -13.46,-13.4600002 z m 8.11,22.3100002 a 11.93,11.93 0 0 1 -8.65,3.69 1,1 0 0 1 -1,-1 v -3.76 a 5,5 0 0 0 -4.9999991,-5 5.07,5.07 0 0 0 -1.33,0.18 l -1.12,0.31 a 2.82,2.82 0 0 1 -3.55,-2.73 12,12 0 0 1 12.4699991,-12.0000002 12.18,12.18 0 0 1 11.53,11.5300002 11.89,11.89 0 0 1 -3.35,8.79 z"
     fill="#0062ff" />

</svg>