<?xml version="1.0" encoding="UTF-8"?>
<svg viewBox="-4 0 32 32" width="45px" height="32px" version="1.1" xmlns="http://www.w3.org/2000/svg" xmlns:xlink="http://www.w3.org/1999/xlink">

    <path d="M 28.91,21.75 9.84,2.66 a 2,2 0 0 0 -2.83,0 L 2.09,7.59 a 2,2 0 0 0 0,2.82 L 21.16,29.5 a 2,2 0 0 0 1.42,0.58 2,2 0 0 0 1.41,-0.58 l 4.92,-4.93 a 2,2 0 0 0 0,-2.82 z M 22.58,28.08 3.5,9 8.42,4.08 l 3.79,3.79 -2.25,2.21 1.41,1.41 2.25,-2.21 4.13,4.13 -2.25,2.25 1.42,1.42 2.25,-2.25 4.13,4.13 -2.25,2.25 1.45,1.41 2.25,-2.25 2.75,2.79 z" fill="#0062ff"></path>

</svg>