<?xml version="1.0" encoding="UTF-8"?>
<svg viewBox="-4 0 32 32" width="45px" height="32px" version="1.1" xmlns="http://www.w3.org/2000/svg" xmlns:xlink="http://www.w3.org/1999/xlink">
    
    <defs>
        <linearGradient id="alphaGradV" x1="0%" y1="100%" x2="0%" y2="0%">
            <stop offset="0" stop-color="white"/>
            <stop offset="1" stop-color="black"/>
        </linearGradient>
        <linearGradient id="alphaGradH" x1="0%" y1="0%" x2="100%" y2="0%">
            <stop offset="0" stop-color="white"/>
            <stop offset="1" stop-color="black"/>
        </linearGradient>        
        
        <mask id="alphaMask" x="0" y="0" width="100%" height="100%">
            <rect x="0" y="0" width="100%" height="100%" fill="white"/>
            <rect x="0" y="13" height="35%" width="25%" fill="url(#alphaGradV)"/>
        </mask>
        <linearGradient id="linear" x1="50%" y1="0%" x2="0%" y2="50%">
            <stop offset="0%" stop-color="#1367fb"/>
            <stop offset="100%" stop-color="#a342f7"/>
        </linearGradient>
    </defs>
    
    <path d="M 28,6 H 4 A 2,2 0 0 0 2,8 v 16 a 2,2 0 0 0 2,2 h 24 a 2,2 0 0 0 2,-2 V 8 A 2,2 0 0 0 28,6 Z m 0,2 v 3 H 4 V 8 Z M 4,24 V 13 h 24 v 11 z" fill="#0062ff" transform="translate(-0.5)"></path>
    <path d="M6 20h10v2H6z" fill="#0062ff"></path>

</svg>