<?xml version="1.0" encoding="UTF-8"?>
<svg viewBox="-4 0 32 32" width="45px" height="32px" version="1.1" xmlns="http://www.w3.org/2000/svg" xmlns:xlink="http://www.w3.org/1999/xlink">
    
    <defs>
        <linearGradient id="alphaGradV" x1="0%" y1="0%" x2="0%" y2="100%">
            <stop offset="0" stop-color="black"/>
            <stop offset="1" stop-color="white"/>
        </linearGradient>
        <linearGradient id="alphaGradH" x1="0%" y1="0%" x2="100%" y2="0%">
            <stop offset="0" stop-color="white"/>
            <stop offset="1" stop-color="black"/>
        </linearGradient>
        <linearGradient id="alphaGradH2" x1="0%" y1="0%" x2="100%" y2="0%">
            <stop offset="0" stop-color="black"/>
            <stop offset="1" stop-color="white"/>
        </linearGradient>
        
        <mask id="alphaMask" x="0" y="0" width="100%" height="100%">
            <rect x="0" y="0" width="100%" height="100%" fill="white"/>
            
            <rect x="5" y="7" height="2" width="11" fill="url(#alphaGradH)"/>
            <rect x="17" y="7" height="2" width="10" fill="url(#alphaGradH2)"/>
        </mask>
        <linearGradient id="linear" x1="50%" y1="0%" x2="0%" y2="50%">
            <stop offset="0%" stop-color="#1367fb"/>
            <stop offset="100%" stop-color="#a342f7"/>
        </linearGradient>
    </defs>
    
    
    <g transform="translate(1.5)">
    <path d="m 26,28 a 2,2 0 0 1 -2,2 2,2 0 0 1 -2,-2 2,2 0 0 1 2,-2 2,2 0 0 1 2,2 z m -14,0 a 2,2 0 0 1 -2,2 2,2 0 0 1 -2,-2 2,2 0 0 1 2,-2 2,2 0 0 1 2,2 z M 28,7 H 5.82 L 5,2.8 A 1,1 0 0 0 4,2 H 0 V 4 H 3.18 L 7,23.2 A 1,1 0 0 0 8,24 H 26 V 22 H 8.82 L 8,18 h 18 a 1,1 0 0 0 1,-0.78 l 2,-9 A 1,1 0 0 0 28,7 Z m -2.8,9 H 7.62 L 6.22,9 h 20.53 z" fill="#0062ff"></path>
    
<!--    <path d="M 20.401805,9.3998094 17.393518,12.078594 V 2.9722223 h -1.675926 v 9.1063717 l -3.008287,-2.6787846 -1.181528,1.0550526 5.027778,4.489584 5.027778,-4.489584 z" fill="#081473"></path>-->
    </g>
</svg>