<?xml version="1.0" encoding="UTF-8"?>
<svg viewBox="-4 0 32 32" width="45px" height="32px" version="1.1" xmlns="http://www.w3.org/2000/svg" xmlns:xlink="http://www.w3.org/1999/xlink">
    
    <defs>
        <linearGradient id="alphaGradV" x1="0%" y1="100%" x2="0%" y2="0%">
            <stop offset="0" stop-color="white"/>
            <stop offset="1" stop-color="black"/>
        </linearGradient>
        <linearGradient id="alphaGradH" x1="0%" y1="0%" x2="100%" y2="0%">
            <stop offset="0" stop-color="white"/>
            <stop offset="1" stop-color="black"/>
        </linearGradient>        
        
        <mask id="alphaMask" x="0" y="0" width="100%" height="100%">
            <rect x="0" y="0" width="100%" height="100%" fill="white"/>
            <rect x="0" y="25%" height="30%" width="100%" fill="url(#alphaGradV)"/>
        </mask>
        <linearGradient id="linear" x1="50%" y1="0%" x2="0%" y2="50%">
            <stop offset="0%" stop-color="#1367fb"/>
            <stop offset="100%" stop-color="#a342f7"/>
        </linearGradient>
    </defs>
    
    <path d="m 3.5,6 c -1.104569,0 -2,0.8954305 -1,1.9027933 l 12.429688,8.9175187 c 0.342933,0.238096 0.797691,0.238096 1.140624,0 L 28.5,7.9027933 C 29.5,6.8954305 28.604569,6 27.5,6 Z M 5.699219,8 H 25.300781 L 15.5,14.779297 Z" fill="#0062ff"></path>
    
    <path d="M 28,8.91 V 24 H 4 V 8.91 L 2,8 v 16 c 0,1.104569 0.8954305,2 2,2 h 24 c 1.104569,0 2,-0.895431 2,-2 V 8"
     fill="#0062ff" transform="translate(-0.5)"></path>

</svg>