<?xml version="1.0" encoding="UTF-8"?>
<svg viewBox="-4 0 32 32" width="45px" height="32px" version="1.1" xmlns="http://www.w3.org/2000/svg" xmlns:xlink="http://www.w3.org/1999/xlink">
    
    <path d="m 15.5,2 a 14,14 0 1 0 14,14 14.016,14.016 0 0 0 -14,-14 z m -11.9799996,14.394 1.338,0.446 1.642,2.463 v 1.283 a 1,1 0 0 0 0.293,0.707 l 2.707,2.707 v 2.377 a 11.994,11.994 0 0 1 -5.98,-9.983 z M 15.5,28 A 11.968,11.968 0 0 1 12.928,27.715 L 13.5,26 15.305,21.488 A 1,1 0 0 0 15.208,20.562 L 13.797,18.445 A 1,1 0 0 0 12.965,18 H 8.0350004 l -1.248,-1.873 2.127,-2.127 H 10.5 v 2 h 2 V 13.266 L 16.368,6.496 14.632,5.504 13.777,7 H 11.035 L 9.9500004,5.371 A 11.861,11.861 0 0 1 19.5,4.7 V 8 a 1,1 0 0 0 1,1 h 1.465 A 1,1 0 0 0 22.797,8.555 L 23.674,7.239 A 12.033,12.033 0 0 1 26.394,11 H 22.32 a 1,1 0 0 0 -0.98,0.804 l -0.723,4.47 a 1,1 0 0 0 0.54,1.055 L 24.5,19 25.185,23.056 A 11.98,11.98 0 0 1 15.5,28 Z" fill="#0062ff"></path>

</svg>