<?xml version="1.0" encoding="UTF-8"?>
<svg viewBox="-4 0 32 32" width="45px" height="32px" version="1.1" xmlns="http://www.w3.org/2000/svg" xmlns:xlink="http://www.w3.org/1999/xlink">
    
    <path d="m 6.5,24 h 10 v 2 h -10 z m 2,4 h 6 v 2 h -6 z m 3,-26 a 10,10 0 0 0 -10,10 9.19,9.19 0 0 0 3.46,7.62 c 1,0.93 1.54,1.46 1.54,2.38 h 2 C 8.5,20.16 7.39,19.13 6.31,18.14 A 7.2,7.2 0 0 1 3.5,12 a 8,8 0 0 1 16,0 7.2,7.2 0 0 1 -2.82,6.14 c -1.07,1 -2.18,2 -2.18,3.86 h 2 c 0,-0.92 0.53,-1.45 1.54,-2.39 A 9.18,9.18 0 0 0 21.5,12 10,10 0 0 0 11.5,2 Z" fill="#0062ff"></path>

</svg>