<?xml version="1.0" encoding="UTF-8"?>
<svg viewBox="-4 0 32 32" width="45px" height="32px" version="1.1" xmlns="http://www.w3.org/2000/svg" xmlns:xlink="http://www.w3.org/1999/xlink">

    <path
      d="m 15.286307,17.239271 c -0.429176,0.02314 -1.337822,0.09592 -1.427937,0.388469 0.874466,0.882289 1.765929,1.749982 2.629286,2.641732 0.697011,0.839146 0.351727,2.337704 -0.73966,2.644363 -0.658054,0.226136 -1.442352,0.01854 -1.889423,-0.518314 0.0452,0.05129 -0.286636,-0.276759 -0.392068,-0.377022 -0.723478,-0.7018 -1.446955,-1.4036 -2.170432,-2.1054 -0.854595,1.836903 -0.125517,4.188769 1.560175,5.284993 1.070521,0.743944 2.459767,0.906029 3.708648,0.596606 0.502336,-0.0016 0.754688,0.501617 1.100379,0.78711 0.982215,0.974044 1.946135,1.967413 2.940274,2.928864 0.695773,0.660147 1.857586,0.476716 2.451003,-0.225945 0.607127,-0.610113 0.71243,-1.679532 0.100803,-2.325941 -1.170139,-1.206503 -2.378238,-2.377046 -3.5565,-3.57588 -0.362647,-0.475726 0.05299,-1.061954 -0.01116,-1.593695 0.130943,-1.87568 -1.107352,-3.73912 -2.900058,-4.31903 -0.450694,-0.154149 -0.927109,-0.231482 -1.403325,-0.23091 z" fill="#0062ff"/>
    
    <path
     d="M 14 2 A 2 2 0 0 0 12 4 L 12 28 A 2 2 0 0 0 14 30 L 26 30 L 26 28 L 14 28 L 14 4 L 22 4 L 22 10 A 2 2 0 0 0 24 12 L 30 12 L 30 14 L 30 15 L 30 17 L 32 17 L 32 15 L 32 14 L 32 10 A 0.91 0.91 0 0 0 31.699219 9.3007812 L 24.699219 2.3007812 A 0.91 0.91 0 0 0 24 2 L 14 2 z M 24 4.4003906 L 29.599609 10 L 24 10 L 24 4.4003906 z "
     transform="translate(-10.5)" fill="#0062ff"/>
    
</svg>