<?xml version="1.0" encoding="UTF-8"?>
<svg viewBox="-4 0 32 32" width="45px" height="32px" version="1.1" xmlns="http://www.w3.org/2000/svg" xmlns:xlink="http://www.w3.org/1999/xlink">

<path
     d="m 7.5,9 a 4,4 0 1 1 4,-4 4,4 0 0 1 -4,4 z m 0,-6 a 2,2 0 1 0 2,2 2,2 0 0 0 -2,-2 z m 16,6 a 4,4 0 1 1 4,-4 4,4 0 0 1 -4,4 z m 0,-6 a 2,2 0 1 0 2,2 2,2 0 0 0 -2,-2 z m 2,27 h -4 a 2,2 0 0 1 -2,-2 v -7 h 2 v 7 h 4 v -9 h 2 v -6 a 1,1 0 0 0 -1,-1 H 20.08 L 15.5,20 10.92,12 H 4.5 a 1,1 0 0 0 -1,1 v 6 h 2 v 9 h 4 v -7 h 2 v 7 a 2,2 0 0 1 -2,2 h -4 a 2,2 0 0 1 -2,-2 v -7 a 2,2 0 0 1 -2,-2 v -6 a 3,3 0 0 1 3,-3 h 7.58 l 3.42,6 3.42,-6 h 7.58 a 3,3 0 0 1 3,3 v 6 a 2,2 0 0 1 -2,2 v 7 a 2,2 0 0 1 -2,2 z" fill="#0062ff" />

</svg>
  