<?xml version="1.0" encoding="UTF-8"?>
<svg viewBox="-4 0 32 32" width="45px" height="32px" version="1.1" xmlns="http://www.w3.org/2000/svg" xmlns:xlink="http://www.w3.org/1999/xlink">
    
    <path d="m 17.5,31 h 2 v -2 a 1,1 0 0 1 1,-1 h 6 a 1,1 0 0 1 1,1 v 2 h 2 v -2 a 3.003,3.003 0 0 0 -3,-3 h -6 a 3.003,3.003 0 0 0 -3,3 z m 6,-6 a 4,4 0 1 1 4,-4 4.004,4.004 0 0 1 -4,4 z m 0,-6 a 2,2 0 1 0 2,2 2.003,2.003 0 0 0 -2,-2 z m -22,12 h 2 v -2 a 1,1 0 0 1 1,-1 h 6 a 1,1 0 0 1 1,1 v 2 h 2 v -2 a 3.003,3.003 0 0 0 -3,-3 h -6 a 3.003,3.003 0 0 0 -3,3 z m 6,-6 a 4,4 0 1 1 4,-4 4.004,4.004 0 0 1 -4,4 z m 0,-6 a 2,2 0 1 0 2,2 2.002,2.002 0 0 0 -2,-2 z m 10,-3 h 2 v -2 a 1,1 0 0 1 1,-1 h 6 a 1,1 0 0 1 1,1 v 2 h 2 v -2 a 3.003,3.003 0 0 0 -3,-3 h -6 a 3.003,3.003 0 0 0 -3,3 z m 6,-6 a 4,4 0 1 1 4,-4 4.004,4.004 0 0 1 -4,4 z m 0,-6 a 2,2 0 1 0 2,2 2.002,2.002 0 0 0 -2,-2 z m -22,12 h 2 v -2 a 1.001,1.001 0 0 1 1,-1 h 6 a 1.001,1.001 0 0 1 1,1 v 2 h 2 v -2 a 3.003,3.003 0 0 0 -3,-3 h -6 a 3.003,3.003 0 0 0 -3,3 z m 6,-6 a 4,4 0 1 1 4,-4 4.005,4.005 0 0 1 -4,4 z m 0,-6 a 2,2 0 1 0 2,2 2.002,2.002 0 0 0 -2,-2 z" fill="#0062ff"></path>

</svg>
  