<?xml version="1.0" encoding="UTF-8"?>
<svg viewBox="-4 0 32 32" width="45px" height="32px" version="1.1" xmlns="http://www.w3.org/2000/svg" xmlns:xlink="http://www.w3.org/1999/xlink">
    
    <path d="m 28.5,10 h -6 a 3.003,3.003 0 0 0 -3,3 v 6 a 2.002,2.002 0 0 0 2,2 v 7 a 2.002,2.002 0 0 0 2,2 h 4 a 2.002,2.002 0 0 0 2,-2 v -7 a 2.002,2.002 0 0 0 2,-2 v -6 a 3.003,3.003 0 0 0 -3,-3 z m 1,9 h -2 v 9 h -4 v -9 h -2 v -6 a 1,1 0 0 1 1,-1 h 6 a 1,1 0 0 1 1,1 z m -8,-14 a 4,4 0 1 1 4,4 4.004,4.004 0 0 1 -4,-4 z m 2,0 a 2,2 0 1 0 2,-2 2.002,2.002 0 0 0 -2,2 z m -8,11 v -3 a 3.003,3.003 0 0 0 -3,-3 h -6 a 3.003,3.003 0 0 0 -3,3 v 3 h -2 v 2 h 16 v -2 z m -10,-3 a 1,1 0 0 1 1,-1 h 6 a 1,1 0 0 1 1,1 v 3 h -8 z m 0,-8 a 4,4 0 1 1 4,4 4.004,4.004 0 0 1 -4,-4 z m 2,0 a 2,2 0 1 0 2,-2 2.002,2.002 0 0 0 -2,2 z"
     id="path2" fill="#0062ff"></path>
    
</svg>