<?xml version="1.0" encoding="UTF-8"?>
<svg viewBox="-4 0 32 32" width="45px" height="32px" version="1.1" xmlns="http://www.w3.org/2000/svg" xmlns:xlink="http://www.w3.org/1999/xlink">
    
<path d="m 23.5,4 h -4 V 2 h -2 v 2 h -8 V 2 h -2 v 2 h -4 a 2,2 0 0 0 -2,2 v 20 a 2,2 0 0 0 2,2 h 20 a 2,2 0 0 0 2,-2 V 6 a 2,2 0 0 0 -2,-2 z m 0,22 H 3.5 V 12 h 20 z m 0,-16 H 3.5 V 6 h 4 v 2 h 2 V 6 h 8 v 2 h 2 V 6 h 4 z" fill="#0062ff"></path>
    
    <path
     d="m 6.5,22.97 h 2 v 2 h -2 z m 12,0 h 2 v 2 h -2 z m -12,-5 h 2 v 2 h -2 z m 12,0 h 2 v 2 h -2 z m -12,-5 h 2 v 2 h -2 z m 6,10 h 2 v 2 h -2 z m 0,-5 h 2 v 2 h -2 z m 0,-5 h 2 v 2 h -2 z m 6,0 h 2 v 2 h -2 z" fill="#0062ff"/>
    
</svg>