<?xml version="1.0" encoding="UTF-8"?>
<svg viewBox="-4 0 32 32" width="45px" height="32px" version="1.1" xmlns="http://www.w3.org/2000/svg" xmlns:xlink="http://www.w3.org/1999/xlink">
    
<path d="m 27.5,2 h -12 a 2.002,2.002 0 0 0 -2,2 v 10 h -10 a 2.002,2.002 0 0 0 -2,2 v 14 h 28 V 4 a 2.002,2.002 0 0 0 -2,-2 z m -19,26 v -7 h 4 v 7 z m 19,0 h -13 v -8 a 1,1 0 0 0 -1,-1 h -6 a 1,1 0 0 0 -1,1 v 8 h -3 V 16 h 12 V 4 h 12 z" fill="#0062ff"></path>

<path d="m 17.5,8 h 2 v 2 h -2 z m 6,0 h 2 v 2 h -2 z m -6,6 h 2 v 2 h -2 z m 6,0 h 2 v 2 h -2 z m -6,6 h 2 v 2 h -2 z m 6,0 h 2 v 2 h -2 z" fill="#0062ff"></path>

</svg>

