<?xml version="1.0" encoding="UTF-8"?>
<svg viewBox="-4 0 32 32" width="45px" height="32px" version="1.1" xmlns="http://www.w3.org/2000/svg" xmlns:xlink="http://www.w3.org/1999/xlink">
    
  <circle
     cx="7.5"
     cy="14"
     r="2"
    fill="#0062ff" />
  <path
     d="M 13.5,30 A 1,1 0 0 1 12.79,29.71 L 2.09,19 A 2,2 0 0 1 1.5,17.59 V 10 a 2,2 0 0 1 2,-2 h 7.59 a 2,2 0 0 1 1.41,0.59 l 10.71,10.7 a 1,1 0 0 1 0,1.42 l -9,9 A 1,1 0 0 1 13.5,30 Z M 3.5,10 v 7.59 l 10,10 7.59,-7.59 -10,-10 z"
     fill="#0062ff" />
  <path
     d="M 25.21,13.29 14.5,2.59 A 2,2 0 0 0 13.09,2 H 5.5 a 2,2 0 0 0 -2,2 v 2 h 2 V 4 h 7.59 l 10,10 -1.3,1.29 1.42,1.42 2,-2 a 1,1 0 0 0 0,-1.42 z"
     fill="#0062ff" />

</svg>