<?xml version="1.0" encoding="UTF-8"?>
<svg viewBox="-4 0 32 32" width="45px" height="32px" version="1.1" xmlns="http://www.w3.org/2000/svg" xmlns:xlink="http://www.w3.org/1999/xlink">

    <path d="m 26.07,16.76 v -1.53 l 1.92,-1.68 A 2,2 0 0 0 28.37,11 L 26.01,7 A 2,2 0 0 0 24.28,6 2,2 0 0 0 23.64,6.1 L 21.21,6.92 A 11.35,11.35 0 0 0 19.9,6.17 L 19.39,3.65 a 2,2 0 0 0 -2,-1.61 h -4.68 a 2,2 0 0 0 -2,1.61 L 10.2,6.17 A 11.48,11.48 0 0 0 8.88,6.92 L 6.5,6.06 A 2,2 0 0 0 5.86,6 2,2 0 0 0 4.13,7 l -2.36,4 a 2,2 0 0 0 0.41,2.51 l 1.89,1.73 v 1.53 L 2.18,18.45 A 2,2 0 0 0 1.77,21 l 2.36,4 a 2,2 0 0 0 1.73,1 2,2 0 0 0 0.64,-0.1 l 2.43,-0.82 a 11.35,11.35 0 0 0 1.31,0.75 l 0.51,2.52 a 2,2 0 0 0 2,1.61 h 4.72 a 2,2 0 0 0 2,-1.61 l 0.51,-2.52 a 11.48,11.48 0 0 0 1.32,-0.75 l 2.42,0.82 a 2,2 0 0 0 0.64,0.1 2,2 0 0 0 1.73,-1 l 2.28,-4 A 2,2 0 0 0 27.96,18.49 Z M 24.28,24 20.85,22.84 a 8.86,8.86 0 0 1 -2.71,1.57 L 17.43,28 H 12.71 L 12,24.45 A 9.36,9.36 0 0 1 9.3,22.88 L 5.86,24 3.5,20 6.22,17.6 a 8.9,8.9 0 0 1 0,-3.13 L 3.5,12 5.86,8 9.29,9.16 A 8.86,8.86 0 0 1 12,7.59 L 12.71,4 h 4.72 l 0.71,3.55 a 9.36,9.36 0 0 1 2.7,1.57 L 24.28,8 l 2.36,4 -2.72,2.4 a 8.9,8.9 0 0 1 0,3.13 L 26.64,20 Z" fill="#0062ff"></path>

    <path d="m 15.07,22 a 6,6 0 1 1 6,-6 5.94,5.94 0 0 1 -6,6 z m 0,-10 a 3.91,3.91 0 0 0 -4,4 3.91,3.91 0 0 0 4,4 3.91,3.91 0 0 0 4,-4 3.91,3.91 0 0 0 -4,-4 z" fill="#0062ff"></path>

</svg>