<?xml version="1.0" encoding="UTF-8"?>
<svg viewBox="-4 0 32 32" width="45px" height="32px" version="1.1" xmlns="http://www.w3.org/2000/svg" xmlns:xlink="http://www.w3.org/1999/xlink">

<path d="m 29.5,10 h -5 v 2 h 5 v 6 h -7 v 2 h 3 v 2.142 a 4,4 0 1 0 2,0 V 20 h 2 a 2.003,2.003 0 0 0 2,-2 v -6 a 2.002,2.002 0 0 0 -2,-2 z m -1,16 a 2,2 0 1 1 -2,-2 2.003,2.003 0 0 1 2,2 z m -9,-20 h -5 v 2 h 5 v 6 h -7 v 2 h 3 v 6.142 a 4,4 0 1 0 2,0 V 16 h 2 a 2.002,2.002 0 0 0 2,-2 V 8 a 2.002,2.002 0 0 0 -2,-2 z m -1,20 a 2,2 0 1 1 -2,-2 2.003,2.003 0 0 1 2,2 z M 9.5,2 h -6 a 2.002,2.002 0 0 0 -2,2 v 6 a 2.002,2.002 0 0 0 2,2 h 2 v 10.142 a 4,4 0 1 0 2,0 V 12 h 2 a 2.002,2.002 0 0 0 2,-2 V 4 a 2.002,2.002 0 0 0 -2,-2 z m -1,24 a 2,2 0 1 1 -2,-2 2.002,2.002 0 0 1 2,2 z M 3.5,10 V 4 h 6 l 0.002,6 z" fill="#0062ff"></path>

</svg>