<?xml version="1.0" encoding="UTF-8"?>
<svg viewBox="-4 0 32 32" width="45px" height="32px" version="1.1" xmlns="http://www.w3.org/2000/svg" xmlns:xlink="http://www.w3.org/1999/xlink">

<path d="m 19,2 c -1.104569,0 -2,0.8954305 -2,2 v 1 h -3 c -1.104569,0 -2,0.8954305 -2,2 v 21 c 0,1.104569 0.895431,2 2,2 H 24 V 28 H 14 V 7 h 3 v 3 H 29 V 7 h 3 v 5 h 2 V 7 C 34,5.8954305 33.104569,5 32,5 H 29 V 4 C 29,2.8954305 28.104569,2 27,2 Z m 0,2 h 8 v 4 h -8 z" transform="translate(-10.5)" fill="#0062ff"></path>

<path d="m 21.5,30 a 8,8 0 1 1 8,-8 8,8 0 0 1 -8,8 z m 0,-14 a 6,6 0 1 0 6,6 6,6 0 0 0 -6,-6 z" fill="#0062ff"></path>

<path d="M22.59 25L20 22.41V18h2v3.59l2 2L22.59 25z" fill="#0062ff"/>
    
<path d="m 6.5,18 h 5 v 2 h -5 z m 0,-5 h 7 v 2 h -7 z m 0,10 h 5 v 2 h -5 z" fill="#0062ff"/>

</svg>