<?xml version="1.0" encoding="UTF-8"?>
<svg viewBox="-4 0 32 32" width="45px" height="32px" version="1.1" xmlns="http://www.w3.org/2000/svg" xmlns:xlink="http://www.w3.org/1999/xlink">
    
<path d="m 7.5,30 h -4 a 2,2 0 0 1 -2,-2 v -4 a 2,2 0 0 1 2,-2 h 4 a 2,2 0 0 1 2,2 v 4 a 2,2 0 0 1 -2,2 z m -4,-6 v 4 h 4 v -4 z m 14,6 h -4 a 2,2 0 0 1 -2,-2 v -4 a 2,2 0 0 1 2,-2 h 4 a 2,2 0 0 1 2,2 v 4 a 2,2 0 0 1 -2,2 z m -4,-6 v 4 h 4 v -4 z m 14,6 h -4 a 2,2 0 0 1 -2,-2 v -4 a 2,2 0 0 1 2,-2 h 4 a 2,2 0 0 1 2,2 v 4 a 2,2 0 0 1 -2,2 z m -4,-6 v 4 h 4 v -4 z m 4,-4 h -24 a 2,2 0 0 1 -2,-2 V 4 a 2,2 0 0 1 2,-2 h 24 a 2,2 0 0 1 2,2 v 14 a 2,2 0 0 1 -2,2 z M 3.5,4 v 14 h 24 V 4 Z" fill="#0062ff"></path>

</svg>