<?xml version="1.0" encoding="UTF-8"?>
<svg viewBox="-4 0 32 32" width="45px" height="32px" version="1.1" xmlns="http://www.w3.org/2000/svg" xmlns:xlink="http://www.w3.org/1999/xlink">
    
<path d="m 18.5,24 h 4 v 4 h -4 z m 7,0 h 4 v 4 h -4 z m -7,-7 h 4 v 4 h -4 z m 7,0 h 4 v 4 h -4 z" fill="#0062ff"></path>
<path d="M 16.5,24 H 3.5 V 10 h 24 v 5 h 2 v -5 a 2.002,2.002 0 0 0 -2,-2 h -6 V 4 a 2.002,2.002 0 0 0 -2,-2 h -8 a 2.002,2.002 0 0 0 -2,2 v 4 h -6 a 2.002,2.002 0 0 0 -2,2 v 14 a 2.002,2.002 0 0 0 2,2 h 13 z m -5,-20 h 8 v 4 h -8 z" fill="#0062ff"></path>

</svg>