<?xml version="1.0" encoding="UTF-8"?>
<svg viewBox="-4 0 32 32" width="45px" height="32px" version="1.1" xmlns="http://www.w3.org/2000/svg" xmlns:xlink="http://www.w3.org/1999/xlink">
    
    <path d="m 19.5,19 h -8 a 2,2 0 0 1 -2,-2 v -2 a 2,2 0 0 1 2,-2 h 8 a 2,2 0 0 1 2,2 v 2 a 2,2 0 0 1 -2,2 z m -8,-4 v 2 h 8 v -2 z" fill="#0062ff"/>
    
    <path d="m 26.65,29.5 -1.74,-1 3.15,-5.5 H 22.060001 L 26.91,14.5 l 1.74,1 -3.15,5.5 h 6 z" fill="#0062ff"></path>
    
    <path d="m 14,2 c -1.104569,0 -2,0.8954305 -2,2 v 4 c 0,1.104569 0.895431,2 2,2 v 16 c 0,1.104569 0.895431,2 2,2 H 32 V 26 H 16 V 10 h 20 v 2 h 2 v -2 c 1.104569,0 2,-0.895431 2,-2 V 4 C 40,2.8954305 39.104569,2 38,2 Z m 0,2 H 38 V 8 H 14 Z"
     transform="translate(-10.5)" fill="#0062ff"/>

</svg>


