<?xml version="1.0" encoding="UTF-8"?>
<svg viewBox="-4 0 32 32" width="45px" height="32px" version="1.1" xmlns="http://www.w3.org/2000/svg" xmlns:xlink="http://www.w3.org/1999/xlink">
    
    <path d="m 19.5,21 h -8 a 2,2 0 0 1 -2,-2 v -2 a 2,2 0 0 1 2,-2 h 8 a 2,2 0 0 1 2,2 v 2 a 2,2 0 0 1 -2,2 z m -8,-4 v 2 h 8 v -2 z" fill="#0062ff"/>
    
    <path d="M 14 4 A 2 2 0 0 0 12 6 L 12 10 A 2 2 0 0 0 14 12 L 14 28 A 2 2 0 0 0 16 30 L 22 30 L 22 28 L 16 28 L 16 12 L 36 12 L 36 19 L 38 19 L 38 12 A 2 2 0 0 0 40 10 L 40 6 A 2 2 0 0 0 38 4 L 14 4 z M 14 6 L 38 6 L 38 10 L 14 10 L 14 6 z "
     transform="translate(-10.5)" fill="#0062ff"></path>
    
    <path d="M 22.5,27.18 19.91,24.59 18.5,26 l 4,4 7,-7 -1.41,-1.41 z" fill="#0062ff"></path>

</svg>

