<?xml version="1.0" encoding="UTF-8"?>
<svg viewBox="-4 0 32 32" width="45px" height="32px" version="1.1" xmlns="http://www.w3.org/2000/svg" xmlns:xlink="http://www.w3.org/1999/xlink">
    
    <path
       d="m 27.04,5.76 -3.3,-3.3 a 1.6,1.6 0 0 0 -2.24,0 l -14,14 V 22 h 5.53 l 14,-14 a 1.6,1.6 0 0 0 0,-2.24 z M 12.2,20 H 9.5 v -2.7 l 9.44,-9.45 2.71,2.71 z M 23.06,9.15 20.35,6.44 22.62,4.17 25.33,6.88 Z M 19.5,22 v 6 H 3.5 V 4 h 10 V 2 h -10 a 2,2 0 0 0 -2,2 v 24 a 2,2 0 0 0 2,2 h 16 a 2,2 0 0 0 2,-2 v -6 z"
       fill="#0062ff" />

</svg>