<?xml version="1.0" encoding="UTF-8"?>
<svg viewBox="-4 0 32 32" width="45px" height="32px" version="1.1" xmlns="http://www.w3.org/2000/svg" xmlns:xlink="http://www.w3.org/1999/xlink">
    
 <path d="m 9.5,30 h -6 a 2,2 0 0 1 -2,-2 V 16 a 2,2 0 0 1 2,-2 h 6 a 2,2 0 0 1 2,2 v 12 a 2,2 0 0 1 -2,2 z m -6,-14 v 12 h 6 V 16 Z" fill="#0062ff">
</path><path d="m 27.5,4 h -22 a 2,2 0 0 0 -2,2 v 6 h 2 V 6 h 22 v 14 h -14 v 2 h 2 v 4 h -2 v 2 h 9 v -2 h -5 v -4 h 10 a 2,2 0 0 0 2,-2 V 6 a 2,2 0 0 0 -2,-2 z" fill="#0062ff"></path>

</svg>