<?xml version="1.0" encoding="UTF-8"?>
<svg viewBox="-4 0 32 32" width="45px" height="32px" version="1.1" xmlns="http://www.w3.org/2000/svg" xmlns:xlink="http://www.w3.org/1999/xlink">

      <path
     d="m 16.5,30 h 2 v -2 c 0,-0.552285 0.447715,-1 1,-1 h 6 c 0.552285,0 1,0.447715 1,1 v 2 h 2 v -2 c -0.0017,-1.656169 -1.343831,-2.998346 -3,-3 h -6 c -1.656169,0.0017 -2.998346,1.343831 -3,3 z m 6,-6 C 18.936133,24 17.151987,19.691446 19.671717,17.171717 22.191446,14.651987 26.5,16.436133 26.5,20 c -0.0022,2.208225 -1.791775,3.997795 -4,4 z m 0,-6 c -1.781934,0 -2.674006,2.154277 -1.414142,3.414142 C 22.345723,22.674006 24.5,21.781934 24.5,20 c -0.0017,-1.103884 -0.896116,-1.998348 -2,-2 z" fill="#0062ff"
      />
  <path
     d="m 3.5,10 h 20 v 2 h -20 z m 4,16 h 7 v 2 h -7 z m 16,-14 h 2 v 2 h -2 z m 2,-6 a 2,2 0 0 0 -2,-2 h -4 V 2 h -2 v 2 h -8 V 2 h -2 v 2 h -4 a 2,2 0 0 0 -2,2 v 20 a 2,2 0 0 0 2,2 h 4 v -2 h -4 V 6 h 4 v 2 h 2 V 6 h 8 v 2 h 2 V 6 h 4 v 6 h 2 z" fill="#0062ff"/>
    
</svg>