<?xml version="1.0" encoding="UTF-8"?>
<svg viewBox="-4 0 32 32" width="45px" height="32px" version="1.1" xmlns="http://www.w3.org/2000/svg" xmlns:xlink="http://www.w3.org/1999/xlink">
    
     <path
     d="m 13.5,18 v 8 h -10 v -8 h 10 m 0,-2 h -10 c -1.1045695,0 -2,0.895431 -2,2 v 8 c 0,1.104569 0.8954305,2 2,2 h 10 c 1.104569,0 2,-0.895431 2,-2 v -8 c 0,-1.104569 -0.895431,-2 -2,-2 z"
     style="fill:#0062ff" />
  
    <path
     mask="url(#alphaMask)"
     d="m 27,6 v 5 H 17 V 6 H 27 M 27,4 H 17 c -1.104569,0 -2,0.8954305 -2,2 v 5 c 0,1.104569 0.895431,2 2,2 h 10 c 1.104569,0 2,-0.895431 2,-2 V 6 C 29,4.8954305 28.104569,4 27,4 Z m 0,13 v 5 h -5 v -5 h 5 m 0,-2 h -5 c -1.104569,0 -2,0.895431 -2,2 v 5 c 0,1.104569 0.895431,2 2,2 h 5 c 1.104569,0 2,-0.895431 2,-2 v -5 c 0,-1.104569 -0.895431,-2 -2,-2 z M 11,6 v 5 H 6 V 6 h 5 M 11,4 H 6 C 4.8954305,4 4,4.8954305 4,6 v 5 c 0,1.104569 0.8954305,2 2,2 h 5 c 1.104569,0 2,-0.895431 2,-2 V 6 C 13,4.8954305 12.104569,4 11,4 Z"
     transform="translate(-2.5,1)" style="fill:#0062ff"/>
    
    
</svg>