<?xml version="1.0" encoding="UTF-8"?>
<svg viewBox="-4 0 32 32" width="45px" height="32px" version="1.1" xmlns="http://www.w3.org/2000/svg" xmlns:xlink="http://www.w3.org/1999/xlink">
    
    <path d="m 29.5,10.68 -2,-6 A 1,1 0 0 0 26.5,4 h -22 a 1,1 0 0 0 -1,0.68 l -2,6 a 1.19,1.19 0 0 0 0,0.32 v 6 a 1,1 0 0 0 1,1 h 1 v 10 h 2 V 18 h 6 v 10 h 16 V 18 h 1 a 1,1 0 0 0 1,-1 v -6 a 1.19,1.19 0 0 0 0,-0.32 z M 25.5,26 h -12 v -8 h 12 z m 2,-10 h -4 v -4 h -2 v 4 h -5 v -4 h -2 v 4 h -5 v -4 h -2 v 4 h -4 V 11.16 L 5.22,6 h 20.56 l 1.72,5.16 z" fill="#0062ff"></path>

</svg>