<?xml version="1.0" encoding="UTF-8"?>
<svg viewBox="-4 0 32 32" width="45px" height="32px" version="1.1" xmlns="http://www.w3.org/2000/svg" xmlns:xlink="http://www.w3.org/1999/xlink">

<path d="m 25.5,22 a 3.955,3.955 0 0 0 -2.02,0.567 l -3.813,-3.814 a 4.965,4.965 0 0 0 0,-5.506 L 22.214,10.7 A 3.028,3.028 0 1 0 20.8,9.286 l -2.547,2.547 a 4.965,4.965 0 0 0 -5.506,0 L 8.933,8.019 A 3.955,3.955 0 0 0 9.5,6 4,4 0 1 0 5.5,10 3.955,3.955 0 0 0 7.52,9.433 l 3.813,3.814 a 4.965,4.965 0 0 0 0,5.506 L 7.519,22.567 A 3.956,3.956 0 0 0 5.5,22 a 4,4 0 1 0 4,4 3.955,3.955 0 0 0 -0.567,-2.02 l 3.814,-3.813 a 4.969,4.969 0 0 0 1.753,0.732 v 3.285 a 3,3 0 1 0 2,0 v -3.285 a 4.969,4.969 0 0 0 1.753,-0.732 l 3.814,3.814 A 3.955,3.955 0 0 0 21.5,26 a 4,4 0 1 0 4,-4 z m -10,-9 a 3,3 0 1 1 -3,3 3.003,3.003 0 0 1 3,-3 z M 3.5,6 a 2,2 0 1 1 2,2 2.002,2.002 0 0 1 -2,-2 z m 2,22 a 2,2 0 1 1 2,-2 2.002,2.002 0 0 1 -2,2 z m 20,0 a 2,2 0 1 1 2,-2 2.003,2.003 0 0 1 -2,2 z" fill="#0062ff"></path>

</svg>