<?xml version="1.0" encoding="UTF-8"?>
<svg viewBox="-4 0 32 32" width="45px" height="32px" version="1.1" xmlns="http://www.w3.org/2000/svg" xmlns:xlink="http://www.w3.org/1999/xlink">

    <path d="m 15.5,4 a 12,12 0 1 1 -12,12 12,12 0 0 1 12,-12 m 0,-2 a 14,14 0 1 0 14,14 14,14 0 0 0 -14,-14 z" fill="#0062ff">
    </path>
    <path d="M23 10.41L21.59 9l-4.3 4.3a3 3 0 0 0-4 4L9 21.59 10.41 23l4.3-4.3a3 3 0 0 0 4-4zM17 16a1 1 0 1 1-1-1 1 1 0 0 1 1 1z" fill="#0062ff">
    </path>
    <circle cx="16"
     cy="7.5"
     r="1.5" fill="#0062ff"></circle>

</svg>