<?xml version="1.0" encoding="UTF-8"?>
<svg viewBox="-4 0 32 32" width="45px" height="32px" version="1.1" xmlns="http://www.w3.org/2000/svg" xmlns:xlink="http://www.w3.org/1999/xlink">

<path d="m 23.5,21 h 2 v 5 h -2 z m -4,-5 h 2 v 10 h -2 z m -9,10 a 5.006,5.006 0 0 1 -5,-5 h 2 a 3,3 0 1 0 3,-3 v -2 a 5,5 0 0 1 0,10 z" fill="#0062ff"></path>

<path d="m 27.5,2 h -24 a 2.002,2.002 0 0 0 -2,2 v 24 a 2.002,2.002 0 0 0 2,2 h 24 a 2.003,2.003 0 0 0 2,-2 V 4 a 2.002,2.002 0 0 0 -2,-2 z m 0,9 h -14 V 4 h 14 z m -16,-7 v 7 h -8 V 4 Z m -8,24 V 13 h 24 l 0.002,15 z" fill="#0062ff"></path>

</svg>