<?xml version="1.0" encoding="UTF-8"?>
<svg viewBox="-4 0 32 32" width="45px" height="32px" version="1.1" xmlns="http://www.w3.org/2000/svg" xmlns:xlink="http://www.w3.org/1999/xlink">

    <path d="m 14.5,6 -1.41,1.41 3.58,3.59 -3.58,3.59 1.41,1.41 5,-5 z" fill="#0062ff"></path>

    <path d="m 27.5,24 h -11 v -4 h 6 a 2.003,2.003 0 0 0 2,-2 V 4 a 2.002,2.002 0 0 0 -2,-2 h -14 a 2.002,2.002 0 0 0 -2,2 v 14 a 2.002,2.002 0 0 0 2,2 h 6 v 4 h -11 a 2,2 0 0 0 -2,2 v 4 h 2 v -4 h 11 v 4 h 2 v -4 h 11 v 4 h 2 v -4 a 2,2 0 0 0 -2,-2 z M 8.5,4 h 14 l 0.002,14 H 8.5 Z" fill="#0062ff"></path>

</svg>