<?xml version="1.0" encoding="UTF-8"?>
<svg viewBox="-4 0 32 32" width="45px" height="32px" version="1.1" xmlns="http://www.w3.org/2000/svg" xmlns:xlink="http://www.w3.org/1999/xlink">

    <path d="m 26.5,22.127017 v -5.14 c 0,-1.104569 -0.895431,-2 -2,-2 h -8 V 9.8470167 c 4.556699,-1.1765346 3.691502,-7.8708499 -1,-7.8708499 -4.691502,0 -5.5566989,6.6943153 -1,7.8708499 v 5.1400003 h -8 c -1.1045695,0 -2,0.895431 -2,2 v 5.14 c -4.55669886,1.176535 -3.69150222,7.87085 1,7.87085 4.691502,0 5.556699,-6.694315 1,-7.87085 V 17 h 18 v 5.127017 c -4.556699,1.176535 -3.691502,7.87085 1,7.87085 4.691502,0 5.556699,-6.694315 1,-7.87085 z m -19,3.86 c 0,1.781934 -2.1542771,2.674006 -3.4141417,1.414142 C 2.8259937,26.141294 3.7180664,23.987017 5.5,23.987017 c 1.1045695,0 2,0.895431 2,2 z m 6,-20.0000003 c 0,-1.7819336 2.154277,-2.6740063 3.414142,-1.4141417 1.259864,1.2598646 0.367792,3.4141417 -1.414142,3.4141417 -1.104569,0 -2,-0.8954305 -2,-2 z m 12,22.0000003 c -1.781934,0 -2.674006,-2.154277 -1.414142,-3.414142 C 25.345723,23.313011 27.5,24.205083 27.5,25.987017 c 0,1.104569 -0.895431,2 -2,2 z" fill="#0062ff"></path>

</svg>