<?xml version="1.0" encoding="UTF-8"?>
<svg viewBox="-4 0 32 32" width="45px" height="32px" version="1.1" xmlns="http://www.w3.org/2000/svg" xmlns:xlink="http://www.w3.org/1999/xlink">
    
    <path
     d="m 25.5,23 h -0.021 c -0.438451,-0.0102 -0.819315,-0.304362 -0.94,-0.726 L 21.37,11.19 19.435,16.35 C 19.289175,16.740291 18.916643,16.999271 18.5,17 h -4 v -2 h 3.307 l 2.757,-7.351 c 0.338271,-0.9032188 1.63303,-0.8513738 1.898,0.076 l 3.111,10.892 1.979,-5.933 C 27.687693,12.275613 28.06966,12.000016 28.5,12 h 4 v 2 h -3.28 l -2.772,8.316 C 26.312571,22.72458 25.93044,23.000295 25.5,23 Z m -10,7 h -2 v -7 c -0.0017,-1.656169 -1.343831,-2.998346 -3,-3 h -4 c -1.6561688,0.0017 -2.9983463,1.343831 -3,3 v 7 h -2 v -7 c 0.00331,-2.760053 2.2399469,-4.996694 5,-5 h 4 c 2.760053,0.0033 4.996694,2.239947 5,5 z M 8.5,8 c 2.6729,0 4.01101,3.231416 2.121213,5.121213 C 8.7314157,15.01101 5.5,13.6729 5.5,11 5.5,9.3431458 6.8431458,8 8.5,8 m 0,-2 C 4.0451659,6 1.8149842,11.385693 4.9646457,14.535354 8.1143072,17.685016 13.5,15.454834 13.5,11 13.5,8.2385763 11.261424,6 8.5,6 Z"
     fill="#0062ff" />

</svg>