<?xml version="1.0" encoding="UTF-8"?>
<svg viewBox="-4 0 32 32" width="45px" height="32px" version="1.1" xmlns="http://www.w3.org/2000/svg" xmlns:xlink="http://www.w3.org/1999/xlink">
    
    <path
     d="m 28,8 h 2 v 8 H 28 Z M 23,5 h 2 v 11 h -2 z m -5,5 h 2 v 6 H 18 Z M 16,30 H 14 V 24 C 13.9983,22.343831 12.656169,21.001654 11,21 H 7 c -1.6561688,0.0017 -2.9983463,1.343831 -3,3 v 6 H 2 v -6 c 0.00331,-2.760053 2.2399469,-4.996694 5,-5 h 4 c 2.760053,0.0033 4.996694,2.239947 5,5 z M 9,9 c 2.6729,0 4.01101,3.231416 2.121213,5.121213 C 9.2314157,16.01101 6,14.6729 6,12 6,10.343146 7.3431458,9 9,9 M 9,7 C 4.5451659,7 2.3149842,12.385693 5.4646457,15.535354 8.6143072,18.685016 14,16.454834 14,12 14,9.2385763 11.761424,7 9,7 Z"
     fill="#0062ff"
     transform="translate(-0.5)" />

</svg>